<svg xmlns="http://www.w3.org/2000/svg" viewBox="204 158 442.605 402.524"><defs><style>.a{fill:#231815;}</style></defs><circle class="a" cx="2.856" cy="2.856" r="2.856" transform="translate(259.971 536.156)"/><circle class="a" cx="2.856" cy="2.856" r="2.856" transform="translate(222.467 536.156)"/><circle class="a" cx="2.856" cy="2.856" r="2.856" transform="translate(222.467 554.813)"/><circle class="a" cx="2.856" cy="2.856" r="2.856" transform="translate(204 554.813)"/><circle class="a" cx="2.856" cy="2.856" r="2.856" transform="translate(582.447 158)"/><circle class="a" cx="2.856" cy="2.856" r="2.856" transform="translate(595.774 171.136)"/><circle class="a" cx="2.856" cy="2.856" r="2.856" transform="translate(608.91 184.463)"/><circle class="a" cx="2.856" cy="2.856" r="2.856" transform="translate(569.121 171.326)"/><circle class="a" cx="2.856" cy="2.856" r="2.856" transform="translate(582.447 184.463)"/><circle class="a" cx="2.856" cy="2.856" r="2.856" transform="translate(595.583 197.789)"/><circle class="a" cx="2.856" cy="2.856" r="2.856" transform="translate(640.893 197.789)"/><circle class="a" cx="2.856" cy="2.856" r="2.856" transform="translate(608.91 210.925)"/><circle class="a" cx="2.856" cy="2.856" r="2.856" transform="translate(555.985 184.463)"/><circle class="a" cx="2.856" cy="2.856" r="2.856" transform="translate(569.121 197.789)"/><circle class="a" cx="2.856" cy="2.856" r="2.856" transform="translate(582.447 210.925)"/><circle class="a" cx="2.856" cy="2.856" r="2.856" transform="translate(595.583 224.251)"/><circle class="a" cx="2.856" cy="2.856" r="2.856" transform="translate(542.658 197.789)"/><circle class="a" cx="2.856" cy="2.856" r="2.856" transform="translate(555.985 210.925)"/><circle class="a" cx="2.856" cy="2.856" r="2.856" transform="translate(569.121 224.251)"/><circle class="a" cx="2.856" cy="2.856" r="2.856" transform="translate(582.447 237.388)"/><circle class="a" cx="2.856" cy="2.856" r="2.856" transform="translate(608.91 475.36)"/></svg>