<svg xmlns="http://www.w3.org/2000/svg" viewBox="294.712 208.923 148.119 383.492"><defs><style>.a{fill:#231815;}</style></defs><g transform="translate(341.7 157.7)"><circle class="a" cx="2.856" cy="2.856" r="2.856" transform="translate(-19.856 368.937)"/><circle class="a" cx="2.856" cy="2.856" r="2.856" transform="translate(-1.009 368.937)"/><circle class="a" cx="2.856" cy="2.856" r="2.856" transform="translate(17.648 368.937)"/><circle class="a" cx="2.856" cy="2.856" r="2.856" transform="translate(42.017 331.623)"/><circle class="a" cx="2.856" cy="2.856" r="2.856" transform="translate(-43.273 317.535)"/><circle class="a" cx="2.856" cy="2.856" r="2.856" transform="translate(55.153 350.28)"/><circle class="a" cx="2.856" cy="2.856" r="2.856" transform="translate(76.665 399.017)"/><circle class="a" cx="2.856" cy="2.856" r="2.856" transform="translate(91.705 350.28)"/><circle class="a" cx="2.856" cy="2.856" r="2.856" transform="translate(-19.856 387.784)"/><circle class="a" cx="2.856" cy="2.856" r="2.856" transform="translate(-1.009 387.784)"/><circle class="a" cx="2.856" cy="2.856" r="2.856" transform="translate(17.648 387.784)"/><circle class="a" cx="2.856" cy="2.856" r="2.856" transform="translate(36.305 387.784)"/><circle class="a" cx="2.856" cy="2.856" r="2.856" transform="translate(-19.856 406.441)"/><circle class="a" cx="2.856" cy="2.856" r="2.856" transform="translate(-1.009 406.441)"/><circle class="a" cx="2.856" cy="2.856" r="2.856" transform="translate(17.648 406.441)"/><circle class="a" cx="2.856" cy="2.856" r="2.856" transform="translate(36.305 406.441)"/><circle class="a" cx="2.856" cy="2.856" r="2.856" transform="translate(-19.856 425.289)"/><circle class="a" cx="2.856" cy="2.856" r="2.856" transform="translate(-1.009 425.289)"/><circle class="a" cx="2.856" cy="2.856" r="2.856" transform="translate(17.648 425.289)"/><circle class="a" cx="2.856" cy="2.856" r="2.856" transform="translate(36.305 425.289)"/><circle class="a" cx="2.856" cy="2.856" r="2.856" transform="translate(72.834 54.938)"/></g></svg>