<svg xmlns="http://www.w3.org/2000/svg" viewBox="529 323 309 122.028"><g transform="translate(529 322.968)"><path d="M56.707,92.4l-7.918,8.025L0,59.658,48.789,19l7.918,8.025L17.119,59.551Z" transform="translate(0 1.327)"/><path d="M157.6,27.025,165.411,19,214.2,59.658l-48.789,40.658L157.6,92.291l39.588-32.633Z" transform="translate(11.023 1.327)"/><path d="M241.837,102.368,232.1,92.417l39.374-32.526L232.1,27.257,241.837,17.2l50.929,42.584Zm-5.778-9.737,5.885,5.992,46.65-38.839L242.05,20.945l-5.885,6.1L275.861,60Z" transform="translate(16.234 1.201)"/><rect width="11.234" height="127.644" transform="matrix(0.922, 0.387, -0.387, 0.922, 131.611, 0.032)"/></g></svg>