<svg xmlns="http://www.w3.org/2000/svg" viewBox="311.25 334 127.75 17.5"><defs><style>.a{fill:#231815;stroke:#fff;stroke-miterlimit:10;stroke-width:0.5px;}</style></defs><g transform="translate(355 334)"><path d="M17.7,13.5v2.1H0V13.5ZM16,1.8v2H1.7v-2Z" transform="translate(0 0)"/><path d="M62,14.1V16H44V14.1h7.8V3.1H45V1.2H61V3.1H54v11Z" transform="translate(0 0)"/><path d="M75.6,10.3c-.1.5-.1.9-.2,1.4h6.8a2.252,2.252,0,0,1-.1.7c-.2,2.8-.5,4-1,4.6a1.741,1.741,0,0,1-1.4.5H77l-.4-1.6c1,.1,1.9.1,2.2.1.4,0,.6,0,.7-.2.3-.2.5-1,.6-2.7H74.8c-.8,1.9-2.2,3.4-5.3,4.3l-1-1.4c3.8-1,4.7-3,5.1-5.7H69.7c-.3,2.4-.9,5-2.5,6.8l-1.6-1C67.8,13.6,68,9.9,68,7.3V2.8H82.2V7.3H76.7V8.8H84v1.5Zm7.9-8.6H66.7V0H83.4V1.7ZM70,7.3V8.8h5V7.3Zm0-3.1V5.8H80.5V4.2Z" transform="translate(0)"/><path d="M31.8,6.1A12.949,12.949,0,0,0,33,0H30.7c-.1,2.7.4,4.6-2.8,8.4h0l-6.2,7.4,1.5,1.5,7.6-9.2,7.6,9.2,1.5-1.5Z" transform="translate(0)"/><circle class="a" cx="2.856" cy="2.856" r="2.856" transform="translate(-21.5 6.294)"/><circle class="a" cx="2.856" cy="2.856" r="2.856" transform="translate(-43.5 6.294)"/></g></svg>